<mxfile host="app.diagrams.net" modified="2021-12-30T12:22:38.330Z" agent="5.0 (Windows NT 10.0; Win64; x64) AppleWebKit/537.36 (KHTML, like Gecko) Chrome/92.0.4515.159 Safari/537.36" etag="xq2KjbuDUl7369SIpLGs" version="16.1.0" type="github">
  <diagram id="cGFZWe3zTHW_zEF1E5jr" name="第 1 页">
    <mxGraphModel dx="1038" dy="491" grid="1" gridSize="10" guides="1" tooltips="1" connect="1" arrows="1" fold="1" page="1" pageScale="1" pageWidth="827" pageHeight="1169" math="0" shadow="0">
      <root>
        <mxCell id="0" />
        <mxCell id="1" parent="0" />
        <mxCell id="JeMDQMPycaFTaaAiRrEa-12" value="" style="html=1;shadow=0;dashed=0;shape=mxgraph.bootstrap.rrect;rSize=5;strokeColor=#CED4DA;html=1;whiteSpace=wrap;fillColor=#FFFFFF;fontColor=#7D868C;align=left;spacing=15;spacingLeft=40;fontSize=14;" vertex="1" parent="1">
          <mxGeometry x="14" y="350" width="520" height="120" as="geometry" />
        </mxCell>
        <mxCell id="JeMDQMPycaFTaaAiRrEa-13" value="备注" style="html=1;shadow=0;dashed=0;shape=mxgraph.bootstrap.leftButton;strokeColor=inherit;gradientColor=inherit;fontColor=inherit;fillColor=#E9ECEF;rSize=5;perimeter=none;whiteSpace=wrap;resizeHeight=1;fontSize=14;" vertex="1" parent="JeMDQMPycaFTaaAiRrEa-12">
          <mxGeometry width="110" height="120" as="geometry" />
        </mxCell>
        <mxCell id="JeMDQMPycaFTaaAiRrEa-14" value="" style="html=1;shadow=0;dashed=0;shape=mxgraph.bootstrap.rrect;rSize=5;strokeColor=#CED4DA;html=1;whiteSpace=wrap;fillColor=#FFFFFF;fontColor=#7D868C;align=left;spacingLeft=80;spacing=15;fontSize=14;" vertex="1" parent="1">
          <mxGeometry x="14" y="300" width="516" height="30" as="geometry" />
        </mxCell>
        <mxCell id="JeMDQMPycaFTaaAiRrEa-15" value="" style="shape=triangle;direction=south;fillColor=#343A40;strokeColor=none;perimeter=none;" vertex="1" parent="JeMDQMPycaFTaaAiRrEa-14">
          <mxGeometry x="1" y="0.5" width="7" height="3" relative="1" as="geometry">
            <mxPoint x="-17" y="1" as="offset" />
          </mxGeometry>
        </mxCell>
        <mxCell id="JeMDQMPycaFTaaAiRrEa-16" value="" style="shape=triangle;direction=north;fillColor=#343A40;strokeColor=none;perimeter=none;" vertex="1" parent="JeMDQMPycaFTaaAiRrEa-14">
          <mxGeometry x="1" y="0.5" width="7" height="3" relative="1" as="geometry">
            <mxPoint x="-17" y="-4" as="offset" />
          </mxGeometry>
        </mxCell>
        <mxCell id="JeMDQMPycaFTaaAiRrEa-17" value="审核意见" style="html=1;shadow=0;dashed=0;shape=mxgraph.bootstrap.leftButton;strokeColor=#CED4DA;gradientColor=inherit;fontColor=inherit;fillColor=#E9ECEF;rSize=5;perimeter=none;whiteSpace=wrap;resizeHeight=1;fontSize=14;align=left;spacing=15;" vertex="1" parent="JeMDQMPycaFTaaAiRrEa-14">
          <mxGeometry width="110" height="30" relative="1" as="geometry" />
        </mxCell>
        <mxCell id="JeMDQMPycaFTaaAiRrEa-18" value="提交" style="rounded=1;html=1;shadow=0;dashed=0;whiteSpace=wrap;fontSize=10;fillColor=#E6E6E6;align=center;strokeColor=#B3B3B3;fontColor=#333333;" vertex="1" parent="1">
          <mxGeometry x="120" y="500" width="105.5" height="30" as="geometry" />
        </mxCell>
        <mxCell id="JeMDQMPycaFTaaAiRrEa-19" value="取消" style="rounded=1;html=1;shadow=0;dashed=0;whiteSpace=wrap;fontSize=10;fillColor=#E6E6E6;align=center;strokeColor=#B3B3B3;fontColor=#333333;" vertex="1" parent="1">
          <mxGeometry x="260" y="500" width="105.5" height="30" as="geometry" />
        </mxCell>
      </root>
    </mxGraphModel>
  </diagram>
</mxfile>
